<?xml version="1.0" encoding="UTF-8" standalone="no"?><!DOCTYPE svg PUBLIC "-//W3C//DTD SVG 1.1//EN" "http://www.w3.org/Graphics/SVG/1.1/DTD/svg11.dtd"><svg width="100%" height="100%" viewBox="0 0 28 28" version="1.1" xmlns="http://www.w3.org/2000/svg" xmlns:xlink="http://www.w3.org/1999/xlink" xml:space="preserve" xmlns:serif="http://www.serif.com/" style="fill-rule:evenodd;clip-rule:evenodd;stroke-linejoin:round;stroke-miterlimit:2;"><rect id="Mesa-de-trabajo1" serif:id="Mesa de trabajo1" x="-257" y="-1425" width="1080" height="1920" style="fill:none;"/><g id="Mesa-de-trabajo11" serif:id="Mesa de trabajo1"><g><path d="M2.437,10.665c0.25,-0.869 0.598,-1.707 1.036,-2.498c-0.198,-0.45 -0.539,-1.222 -0.698,-1.584l-0.084,-0.289l-0.004,-0.297l0.073,-0.287c0,0 0.15,-0.262 0.151,-0.263l0.001,-0.001c0.734,-0.95 1.588,-1.803 2.54,-2.536l0.263,-0.151l0.288,-0.074l0.297,0.004l0.291,0.083c0.363,0.16 1.134,0.499 1.584,0.697c0.791,-0.437 1.63,-0.784 2.499,-1.034c0.179,-0.458 0.484,-1.243 0.627,-1.612l0.146,-0.264l0.207,-0.213l0.256,-0.151c0,-0 0.292,-0.08 0.293,-0.08l0.002,-0c1.192,-0.153 2.399,-0.153 3.592,0.001l0.292,0.079l0.256,0.151l0.207,0.212l0.146,0.264c0.144,0.37 0.449,1.155 0.627,1.613c0.869,0.25 1.708,0.597 2.499,1.034c0.451,-0.198 1.222,-0.537 1.584,-0.696l0.291,-0.084l0.297,-0.005l0.288,0.074c0,0 0.263,0.15 0.264,0.151l0.002,0.001c0.951,0.734 1.804,1.586 2.538,2.538l0.151,0.262l0.074,0.287l-0.004,0.296l-0.084,0.289c-0.16,0.363 -0.5,1.135 -0.698,1.584c0.438,0.791 0.785,1.629 1.036,2.498c0.458,0.179 1.244,0.484 1.613,0.627l0.265,0.145l0.213,0.207l0.151,0.255c0,0 0.08,0.291 0.08,0.293l0,0.001c0.153,1.191 0.153,2.397 -0.001,3.588l-0.079,0.292l-0.151,0.255l-0.213,0.207l-0.264,0.146c-0.37,0.144 -1.156,0.449 -1.614,0.627c-0.25,0.868 -0.598,1.706 -1.036,2.497c0.198,0.451 0.539,1.222 0.698,1.584l0.084,0.29l0.004,0.296l-0.073,0.287c-0,-0 -0.15,0.262 -0.151,0.263l-0.001,0.001c-0.734,0.951 -1.588,1.803 -2.54,2.537l-0.263,0.15l-0.288,0.074l-0.297,-0.004l-0.291,-0.083c-0.363,-0.16 -1.134,-0.499 -1.584,-0.697c-0.791,0.437 -1.63,0.784 -2.499,1.034c-0.179,0.458 -0.484,1.244 -0.627,1.612l-0.146,0.265l-0.207,0.212l-0.256,0.151c-0,0 -0.292,0.08 -0.293,0.08l-0.002,0.001c-1.192,0.153 -2.399,0.153 -3.591,-0.001l-0.293,-0.08l-0.256,-0.151l-0.207,-0.212l-0.146,-0.264c-0.144,-0.369 -0.449,-1.155 -0.627,-1.613c-0.869,-0.25 -1.708,-0.597 -2.499,-1.034c-0.451,0.198 -1.222,0.537 -1.584,0.696l-0.291,0.085l-0.297,0.004l-0.288,-0.074c-0,0 -0.263,-0.15 -0.264,-0.151l-0.002,-0.001c-0.951,-0.733 -1.804,-1.586 -2.538,-2.537l-0.151,-0.263l-0.074,-0.286l0.004,-0.296l0.084,-0.29c0.16,-0.363 0.5,-1.135 0.698,-1.584c-0.438,-0.791 -0.785,-1.629 -1.036,-2.498c-0.458,-0.178 -1.244,-0.483 -1.613,-0.626l-0.265,-0.146l-0.213,-0.207l-0.151,-0.255c-0,0 -0.08,-0.291 -0.08,-0.293l-0,-0.001c-0.153,-1.191 -0.153,-2.396 0.001,-3.588l0.079,-0.292l0.151,-0.255l0.213,-0.207l0.264,-0.146c0.37,-0.143 1.156,-0.449 1.614,-0.626Zm-0.859,4.699c0.477,0.185 1.239,0.48 1.581,0.614l0.234,0.124l0.196,0.172l0.15,0.214c0,-0 0.098,0.242 0.098,0.244c0.236,0.871 0.583,1.709 1.032,2.491l0.105,0.242l0.045,0.256l-0.016,0.26c-0,0 -0.077,0.253 -0.077,0.254c-0.148,0.335 -0.478,1.082 -0.684,1.551c0.577,0.72 1.232,1.375 1.95,1.949c0.468,-0.206 1.215,-0.534 1.551,-0.682l0.254,-0.078l0.261,-0.016l0.257,0.045c0,-0 0.241,0.103 0.243,0.103c0.783,0.45 1.621,0.797 2.492,1.032l0.245,0.098l0.214,0.15l0.173,0.195c0,0 0.125,0.234 0.125,0.234c0.133,0.342 0.429,1.102 0.614,1.579c0.918,0.102 1.844,0.102 2.758,0.001c0.185,-0.476 0.481,-1.237 0.614,-1.579l0.124,-0.234l0.173,-0.195l0.214,-0.151c-0,0 0.243,-0.097 0.244,-0.098c0.872,-0.235 1.71,-0.582 2.493,-1.03l0.243,-0.105l0.257,-0.045l0.261,0.016c0,0 0.254,0.077 0.255,0.078c0.336,0.147 1.082,0.476 1.55,0.682c0.722,-0.577 1.377,-1.231 1.952,-1.948c-0.207,-0.468 -0.536,-1.216 -0.684,-1.552l-0.078,-0.252l-0.016,-0.26l0.045,-0.257c-0,-0 0.103,-0.24 0.103,-0.242c0.45,-0.782 0.798,-1.62 1.034,-2.49l0.097,-0.246l0.15,-0.213l0.196,-0.173c-0,0 0.234,-0.124 0.234,-0.124c0.342,-0.133 1.103,-0.428 1.58,-0.614c0.102,-0.917 0.102,-1.843 0.002,-2.757c-0.477,-0.185 -1.239,-0.48 -1.581,-0.613l-0.234,-0.125l-0.196,-0.172l-0.15,-0.213c-0,-0 -0.098,-0.243 -0.098,-0.244c-0.236,-0.872 -0.583,-1.709 -1.032,-2.491l-0.105,-0.243l-0.045,-0.256l0.016,-0.26c0,-0 0.077,-0.253 0.077,-0.254c0.148,-0.335 0.478,-1.082 0.684,-1.55c-0.577,-0.721 -1.232,-1.375 -1.95,-1.95c-0.468,0.206 -1.215,0.535 -1.551,0.682l-0.254,0.078l-0.261,0.016l-0.257,-0.044c-0,-0 -0.241,-0.104 -0.243,-0.104c-0.783,-0.45 -1.621,-0.796 -2.492,-1.032l-0.245,-0.098l-0.214,-0.15l-0.173,-0.195c-0,0 -0.125,-0.233 -0.125,-0.234c-0.133,-0.342 -0.429,-1.102 -0.614,-1.579c-0.918,-0.102 -1.844,-0.101 -2.758,-0.001c-0.185,0.477 -0.481,1.237 -0.614,1.58l-0.124,0.233l-0.173,0.196l-0.214,0.15c0,0 -0.243,0.097 -0.244,0.098c-0.872,0.235 -1.71,0.582 -2.493,1.03l-0.243,0.105l-0.257,0.045l-0.261,-0.016c-0,0 -0.254,-0.077 -0.255,-0.077c-0.336,-0.148 -1.082,-0.476 -1.55,-0.682c-0.722,0.576 -1.377,1.23 -1.952,1.947c0.207,0.468 0.536,1.216 0.684,1.552l0.078,0.253l0.016,0.26l-0.045,0.256c0,0 -0.103,0.241 -0.103,0.242c-0.45,0.783 -0.798,1.62 -1.034,2.49l-0.097,0.246l-0.15,0.213l-0.196,0.173c0,-0 -0.234,0.124 -0.234,0.125c-0.342,0.132 -1.103,0.428 -1.58,0.613c-0.102,0.918 -0.102,1.843 -0.002,2.757Zm12.422,-7.753c3.522,0 6.381,2.856 6.381,6.375c0,3.518 -2.859,6.374 -6.381,6.374c-3.522,-0 -6.381,-2.856 -6.381,-6.374c-0,-3.519 2.859,-6.375 6.381,-6.375Zm-0,2c-2.416,0 -4.377,1.961 -4.377,4.375c-0,2.413 1.961,4.374 4.377,4.374c2.416,-0 4.377,-1.961 4.377,-4.374c0,-2.414 -1.961,-4.375 -4.377,-4.375Z" style="fill:#fff;"/></g><g><g><path d="M40.98,19.952c0.133,0.695 -0.078,1.442 -0.628,1.968l-5.682,5.44c-0.864,0.826 -2.238,0.798 -3.066,-0.063c-0.829,-0.861 -0.801,-2.232 0.063,-3.058l5.682,-5.44c0.507,-0.485 1.19,-0.676 1.835,-0.577c-2.115,-2.547 -3.077,-5.998 -2.317,-9.469c1.313,-6.001 7.28,-9.808 13.318,-8.493c6.038,1.315 9.871,7.256 8.557,13.257c-1.314,6.001 -7.28,9.808 -13.318,8.493c-1.671,-0.364 -3.173,-1.082 -4.444,-2.058Zm8.742,-17.579c-4.866,-1.06 -9.678,2.004 -10.737,6.841c-1.058,4.837 2.035,9.623 6.901,10.683c4.867,1.059 9.679,-2.005 10.737,-6.842c1.059,-4.837 -2.034,-9.622 -6.901,-10.682Z" style="fill:#fff;"/></g></g><g><path d="M-27.336,14.498c-0.693,0.128 -1.433,-0.114 -1.912,-0.697c-0.701,-0.852 -0.578,-2.114 0.275,-2.815l11.029,-9.064c0.744,-0.612 1.819,-0.606 2.557,0.013l10.79,9.065c0.845,0.71 0.955,1.973 0.245,2.818c-0.441,0.525 -1.096,0.766 -1.731,0.703l-0,11.224c-0,0.849 -0.689,1.538 -1.538,1.538l-7.78,-0c0,-0 -0.705,-1.708 -0.71,-1.784c-0.058,-0.79 -0.264,-3.795 0.37,-4.955c0.294,-0.539 1.529,-0.73 1.946,-0.768c0.481,-0.044 0.845,0.129 0.945,-0.038c0.233,-0.388 0.424,-1.045 0.636,-1.951c0.095,-0.407 0.151,-0.786 0.184,-1.045c0.024,-0.217 -0.06,-0.432 -0.225,-0.579l-0.199,-0.178l-0.976,-0.034l-0.764,-2.478c0.019,-0.265 0.117,-0.487 0.518,-0.544l0.858,0.304l0.598,0.049c0,-0 -0.351,-0.474 -0.991,-0.902c-0.64,-0.428 -1.226,-0.017 -1.226,-0.017l-1.884,0.771l-2.791,-0.026c-0,0 -0.596,-0.211 -1.072,-0.517c-0.476,-0.305 -0.729,-0.088 -0.729,-0.088c-0,-0 -0.613,0.44 -1.033,0.866c-0.42,0.427 -0.408,0.792 -0.408,0.792l0.566,0.55l0.846,-0.855c0,-0 0.013,1.361 0.314,2.247c0.302,0.887 0.34,1.343 0.31,1.697c-0.064,0.771 -0.362,1.411 -0.657,2.075c-0.365,0.824 -0.495,0.964 -0.815,1.11c-0.562,0.256 -2.774,1.747 -4.228,2.744c-0.262,0.171 -0.596,0.185 -0.871,0.036c-0.275,-0.148 -0.447,-0.436 -0.447,-0.749l0,-8.518Z" style="fill:#fff;"/></g></g></svg>