<?xml version="1.0" encoding="UTF-8" standalone="no"?><!DOCTYPE svg PUBLIC "-//W3C//DTD SVG 1.1//EN" "http://www.w3.org/Graphics/SVG/1.1/DTD/svg11.dtd"><svg width="100%" height="100%" viewBox="0 0 27 27" version="1.1" xmlns="http://www.w3.org/2000/svg" xmlns:xlink="http://www.w3.org/1999/xlink" xml:space="preserve" xmlns:serif="http://www.serif.com/" style="fill-rule:evenodd;clip-rule:evenodd;stroke-linejoin:round;stroke-miterlimit:2;"><rect id="Mesa-de-trabajo1" serif:id="Mesa de trabajo1" x="-401" y="-1426" width="1080" height="1920" style="fill:none;"/><g id="Mesa-de-trabajo11" serif:id="Mesa de trabajo1"><g><path d="M3.894,20.611c-1.806,-1.97 -2.894,-4.505 -2.894,-7.268c-0,-6.272 5.601,-11.364 12.5,-11.364c6.899,-0 12.5,5.092 12.5,11.364c-0,5.892 -4.945,10.743 -11.264,11.308c0.006,-0.026 0.009,-0.052 0.007,-0.077c-0.081,-1.152 -0.308,-4.075 0.59,-5.768c0.416,-0.784 2.164,-1.064 2.753,-1.119c0.682,-0.064 1.196,0.189 1.339,-0.055c0.33,-0.566 0.599,-1.524 0.9,-2.846c0.137,-0.605 0.217,-1.166 0.262,-1.545c0.031,-0.303 -0.082,-0.604 -0.307,-0.81l-0.294,-0.272l-1.382,-0.05l-1.082,-3.613c0.027,-0.387 0.166,-0.711 0.733,-0.794l1.214,0.443l0.847,0.071c0,0 -0.496,-0.69 -1.402,-1.315c-0.907,-0.624 -1.735,-0.024 -1.735,-0.024l-2.668,1.124l-3.95,-0.038c0,0 -0.842,-0.307 -1.516,-0.753c-0.674,-0.446 -1.033,-0.129 -1.033,-0.129c0,-0 -0.867,0.641 -1.461,1.263c-0.594,0.623 -0.577,1.155 -0.577,1.155l0.8,0.801l1.198,-1.246c0,-0 0.018,1.985 0.445,3.277c0.427,1.293 0.481,1.958 0.439,2.475c-0.092,1.124 -0.514,2.058 -0.93,3.025c-0.518,1.202 -0.702,1.407 -1.154,1.619c-1.212,0.568 -2.959,0.752 -2.894,1.082c0.006,0.027 0.011,0.053 0.016,0.079Z" style="fill:#fff;"/></g></g></svg>