<?xml version="1.0" encoding="UTF-8" standalone="no"?><!DOCTYPE svg PUBLIC "-//W3C//DTD SVG 1.1//EN" "http://www.w3.org/Graphics/SVG/1.1/DTD/svg11.dtd"><svg width="100%" height="100%" viewBox="0 0 28 28" version="1.1" xmlns="http://www.w3.org/2000/svg" xmlns:xlink="http://www.w3.org/1999/xlink" xml:space="preserve" xmlns:serif="http://www.serif.com/" style="fill-rule:evenodd;clip-rule:evenodd;stroke-linejoin:round;stroke-miterlimit:2;"><rect id="Mesa-de-trabajo1" serif:id="Mesa de trabajo1" x="-429" y="-1425" width="1080" height="1920" style="fill:none;"/><g id="Mesa-de-trabajo11" serif:id="Mesa de trabajo1"><path d="M3.027,23.501c-2.225,-2.485 -3.004,-5.682 -3.004,-9.168c0,-7.911 6.336,-14.333 14.829,-14.333c6.255,0 13.171,6.422 13.171,14.333c0,7.433 -4.395,13.692 -11.649,13.667c0.008,-0.034 0.011,-0.066 0.009,-0.097c-0.1,-1.453 -0.38,-4.544 0.726,-6.678c0.512,-0.99 2.664,-1.343 3.39,-1.412c0.839,-0.081 1.472,0.238 1.647,-0.07c0.407,-0.714 0.738,-1.921 1.108,-3.589c0.17,-0.763 0.268,-1.472 0.323,-1.949c0.039,-0.383 -0.101,-0.761 -0.377,-1.022l-0.363,-0.342l-1.701,-0.064l-1.332,-4.557c0.033,-0.488 0.204,-0.896 0.902,-1.002l1.495,0.559l1.043,0.09c-0,0 -0.611,-0.871 -1.727,-1.658c-1.116,-0.788 -2.136,-0.031 -2.136,-0.031l-3.283,1.418l-4.863,-0.048c-0,0 -1.038,-0.388 -1.868,-0.95c-0.829,-0.563 -1.271,-0.163 -1.271,-0.163c0,-0 -1.067,0.809 -1.799,1.594c-0.731,0.785 -0.71,1.456 -0.71,1.456l0.985,1.011l1.475,-1.572c0,-0 0.022,2.504 0.547,4.134c0.526,1.63 0.592,2.468 0.541,3.12c-0.113,1.419 -0.632,2.596 -1.145,3.817c-0.637,1.516 -0.817,1.92 -1.421,2.041c-1.529,0.308 -3.549,1.432 -3.542,1.465Z" style="fill:#fff;"/></g></svg>