<?xml version="1.0" encoding="UTF-8" standalone="no"?><!DOCTYPE svg PUBLIC "-//W3C//DTD SVG 1.1//EN" "http://www.w3.org/Graphics/SVG/1.1/DTD/svg11.dtd"><svg width="100%" height="100%" viewBox="0 0 27 27" version="1.1" xmlns="http://www.w3.org/2000/svg" xmlns:xlink="http://www.w3.org/1999/xlink" xml:space="preserve" xmlns:serif="http://www.serif.com/" style="fill-rule:evenodd;clip-rule:evenodd;stroke-linejoin:round;stroke-miterlimit:2;"><rect id="Mesa-de-trabajo1" serif:id="Mesa de trabajo1" x="-401" y="-1426" width="1080" height="1920" style="fill:none;"/><g id="Mesa-de-trabajo11" serif:id="Mesa de trabajo1"><path d="M3.01,22.149c-2.064,-2.298 -2.787,-5.253 -2.787,-8.475c0,-7.312 5.879,-13.249 13.759,-13.249c5.803,-0 12.22,5.937 12.22,13.249c0,6.871 -4.078,12.657 -10.809,12.633c0.008,-0.031 0.011,-0.061 0.009,-0.09c-0.093,-1.343 -0.352,-4.199 0.673,-6.172c0.476,-0.916 2.473,-1.241 3.146,-1.306c0.778,-0.074 1.366,0.22 1.528,-0.064c0.378,-0.66 0.685,-1.776 1.029,-3.317c0.157,-0.706 0.247,-1.361 0.299,-1.803c0.036,-0.353 -0.094,-0.703 -0.35,-0.944l-0.337,-0.317l-1.578,-0.059l-1.236,-4.212c0.031,-0.451 0.19,-0.828 0.837,-0.926l1.387,0.517l0.968,0.083c-0,0 -0.567,-0.805 -1.602,-1.533c-1.036,-0.728 -1.982,-0.028 -1.982,-0.028l-3.047,1.31l-4.512,-0.044c0,0 -0.962,-0.358 -1.732,-0.878c-0.77,-0.52 -1.179,-0.151 -1.179,-0.151c-0,0 -0.991,0.748 -1.67,1.474c-0.678,0.725 -0.659,1.346 -0.659,1.346l0.914,0.934l1.369,-1.453c0,-0 0.02,2.314 0.508,3.821c0.487,1.507 0.549,2.282 0.501,2.885c-0.105,1.311 -0.586,2.399 -1.062,3.527c-0.591,1.402 -0.758,1.776 -1.318,1.888c-1.419,0.284 -3.293,1.323 -3.287,1.354Z" style="fill:#fff;"/></g></svg>