<?xml version="1.0" encoding="UTF-8" standalone="no"?><!DOCTYPE svg PUBLIC "-//W3C//DTD SVG 1.1//EN" "http://www.w3.org/Graphics/SVG/1.1/DTD/svg11.dtd"><svg width="100%" height="100%" viewBox="0 0 28 28" version="1.1" xmlns="http://www.w3.org/2000/svg" xmlns:xlink="http://www.w3.org/1999/xlink" xml:space="preserve" xmlns:serif="http://www.serif.com/" style="fill-rule:evenodd;clip-rule:evenodd;stroke-linejoin:round;stroke-miterlimit:2;"><rect id="Mesa-de-trabajo1" serif:id="Mesa de trabajo1" x="-226" y="-1425" width="1080" height="1920" style="fill:none;"/><g id="Mesa-de-trabajo11" serif:id="Mesa de trabajo1"><g><path d="M3.664,14.498c-0.693,0.128 -1.433,-0.114 -1.912,-0.697c-0.701,-0.852 -0.578,-2.114 0.275,-2.815l11.029,-9.064c0.744,-0.612 1.819,-0.606 2.557,0.013l10.79,9.065c0.845,0.71 0.955,1.973 0.245,2.818c-0.441,0.525 -1.096,0.766 -1.731,0.703l-0,11.224c-0,0.849 -0.689,1.538 -1.538,1.538l-7.78,-0c0,-0 -0.705,-1.708 -0.71,-1.784c-0.058,-0.79 -0.264,-3.795 0.37,-4.955c0.294,-0.539 1.529,-0.73 1.946,-0.768c0.481,-0.044 0.845,0.129 0.945,-0.038c0.233,-0.388 0.424,-1.045 0.636,-1.951c0.095,-0.407 0.151,-0.786 0.184,-1.045c0.024,-0.217 -0.06,-0.432 -0.225,-0.579l-0.199,-0.178l-0.976,-0.034l-0.764,-2.478c0.019,-0.265 0.117,-0.487 0.518,-0.544l0.858,0.304l0.598,0.049c0,-0 -0.351,-0.474 -0.991,-0.902c-0.64,-0.428 -1.226,-0.017 -1.226,-0.017l-1.884,0.771l-2.791,-0.026c-0,0 -0.596,-0.211 -1.072,-0.517c-0.476,-0.305 -0.729,-0.088 -0.729,-0.088c-0,-0 -0.613,0.44 -1.033,0.866c-0.42,0.427 -0.408,0.792 -0.408,0.792l0.566,0.55l0.846,-0.855c0,-0 0.013,1.361 0.314,2.247c0.302,0.887 0.34,1.343 0.31,1.697c-0.064,0.771 -0.362,1.411 -0.657,2.075c-0.365,0.824 -0.495,0.964 -0.815,1.11c-0.562,0.256 -2.774,1.747 -4.228,2.744c-0.262,0.171 -0.596,0.185 -0.871,0.036c-0.275,-0.148 -0.447,-0.436 -0.447,-0.749l0,-8.518Z" style="fill:#fff;"/><path d="M24.921,14.068l-4.612,0l0,-2.181l-12.294,-0l0,2.109l-4.91,0l0,-2.454l17.319,0l4.615,0.051l-0.118,2.475Z" style="fill:#fff;"/></g></g></svg>