<?xml version="1.0" encoding="UTF-8" standalone="no"?><!DOCTYPE svg PUBLIC "-//W3C//DTD SVG 1.1//EN" "http://www.w3.org/Graphics/SVG/1.1/DTD/svg11.dtd"><svg width="100%" height="100%" viewBox="0 0 28 28" version="1.1" xmlns="http://www.w3.org/2000/svg" xmlns:xlink="http://www.w3.org/1999/xlink" xml:space="preserve" xmlns:serif="http://www.serif.com/" style="fill-rule:evenodd;clip-rule:evenodd;stroke-linejoin:round;stroke-miterlimit:2;"><rect id="Mesa-de-trabajo1" serif:id="Mesa de trabajo1" x="-394" y="-1425" width="1080" height="1920" style="fill:none;"/><g id="Mesa-de-trabajo11" serif:id="Mesa de trabajo1"><g><path d="M0.012,25.358c-0.008,-0.065 -0.012,-0.131 -0.012,-0.198c0,-4.6 3.729,-8.328 8.329,-8.328l11.335,-0c4.579,-0 8.294,3.694 8.328,8.265l0.003,0.011c0.013,0.225 -0.003,1.267 -0.003,1.267c-0.015,0.899 -0.757,1.615 -1.655,1.6c-0.899,-0.015 -1.615,-0.757 -1.6,-1.656l0.007,-1.006c-0.005,-0.05 -0.007,-0.101 -0.007,-0.153c-0,-2.801 -2.271,-5.072 -5.073,-5.072l-11.335,-0c-2.77,-0 -5.022,2.22 -5.072,4.977l0.001,0.006c0.019,0.24 -0.003,1.318 -0.003,1.318c-0.023,0.898 -0.77,1.609 -1.669,1.586c-0.898,-0.023 -1.608,-0.771 -1.585,-1.669l0.011,-0.948Zm13.988,-25.358c4.325,-0 7.814,3.415 7.814,7.593c0,4.178 -3.489,7.593 -7.814,7.593c-4.325,0 -7.814,-3.415 -7.814,-7.593c-0,-4.178 3.489,-7.593 7.814,-7.593Zm-0,2.632c-2.848,0 -5.182,2.21 -5.182,4.961c-0,2.751 2.334,4.961 5.182,4.961c2.848,0 5.182,-2.21 5.182,-4.961c-0,-2.751 -2.334,-4.961 -5.182,-4.961Z" style="fill:#fff;"/></g></g></svg>