<?xml version="1.0" encoding="UTF-8" standalone="no"?><!DOCTYPE svg PUBLIC "-//W3C//DTD SVG 1.1//EN" "http://www.w3.org/Graphics/SVG/1.1/DTD/svg11.dtd"><svg width="100%" height="100%" viewBox="0 0 28 28" version="1.1" xmlns="http://www.w3.org/2000/svg" xmlns:xlink="http://www.w3.org/1999/xlink" xml:space="preserve" xmlns:serif="http://www.serif.com/" style="fill-rule:evenodd;clip-rule:evenodd;stroke-linejoin:round;stroke-miterlimit:2;"><rect id="Mesa-de-trabajo1" serif:id="Mesa de trabajo1" x="-288" y="-1425" width="1080" height="1920" style="fill:none;"/><g id="Mesa-de-trabajo11" serif:id="Mesa de trabajo1"><g><g><path d="M9.98,19.952c0.133,0.695 -0.078,1.442 -0.628,1.968l-5.682,5.44c-0.864,0.826 -2.238,0.798 -3.066,-0.063c-0.829,-0.861 -0.801,-2.232 0.063,-3.058l5.682,-5.44c0.507,-0.485 1.19,-0.676 1.835,-0.577c-2.115,-2.547 -3.077,-5.998 -2.317,-9.469c1.313,-6.001 7.28,-9.808 13.318,-8.493c6.038,1.315 9.871,7.256 8.557,13.257c-1.314,6.001 -7.28,9.808 -13.318,8.493c-1.671,-0.364 -3.173,-1.082 -4.444,-2.058Zm8.742,-17.579c-4.866,-1.06 -9.678,2.004 -10.737,6.841c-1.058,4.837 2.035,9.623 6.901,10.683c4.867,1.059 9.679,-2.005 10.737,-6.842c1.059,-4.837 -2.034,-9.622 -6.901,-10.682Z" style="fill:#fff;"/></g></g></g></svg>