<?xml version="1.0" encoding="UTF-8" standalone="no"?><!DOCTYPE svg PUBLIC "-//W3C//DTD SVG 1.1//EN" "http://www.w3.org/Graphics/SVG/1.1/DTD/svg11.dtd"><svg width="100%" height="100%" viewBox="0 0 27 27" version="1.1" xmlns="http://www.w3.org/2000/svg" xmlns:xlink="http://www.w3.org/1999/xlink" xml:space="preserve" xmlns:serif="http://www.serif.com/" style="fill-rule:evenodd;clip-rule:evenodd;stroke-linecap:round;stroke-linejoin:round;stroke-miterlimit:1.5;"><rect id="Mesa-de-trabajo1" serif:id="Mesa de trabajo1" x="-164" y="-1426" width="1080" height="1920" style="fill:none;"/><g id="Mesa-de-trabajo11" serif:id="Mesa de trabajo1"><g><path d="M5.236,14.744l0,-0.001c0,-3.333 2.703,-6.036 6.036,-6.036c1.072,0 2.189,0 3.261,0c3.334,0 6.036,2.703 6.036,6.036c0,0.001 0,0.001 0,0.001" style="fill:none;stroke:#fff;stroke-width:2px;"/><path d="M7.117,10.261l-0,-0.002c-0,-2.018 -1.636,-3.654 -3.654,-3.654c-0.739,0 -1.295,0 -1.295,0" style="fill:none;stroke:#fff;stroke-width:1.5px;"/><ellipse cx="21.988" cy="4.643" rx="3.18" ry="3.227" style="fill:none;stroke:#fff;stroke-width:1.5px;"/><path d="M17.779,19.103c0.328,-0 0.595,0.266 0.595,0.595c-0,0.362 -0,0.823 -0,1.185c-0,0.328 -0.267,0.595 -0.595,0.595c-1.259,-0 -4.078,-0 -4.078,-0l0,4.156c0,0.157 -0.062,0.309 -0.174,0.42c-0.112,0.112 -0.263,0.175 -0.421,0.175c-0.351,-0 -0.794,-0 -1.146,-0c-0.158,-0 -0.309,-0.063 -0.421,-0.175c-0.111,-0.111 -0.174,-0.263 -0.174,-0.42c0,-1.276 0,-4.156 0,-4.156l-4.077,-0c-0.329,-0 -0.595,-0.267 -0.595,-0.595c-0,-0.362 -0,-0.823 -0,-1.185c-0,-0.329 0.266,-0.595 0.595,-0.595c1.259,-0 4.077,-0 4.077,-0l0,-4.156c0,-0.158 0.063,-0.309 0.174,-0.421c0.112,-0.111 0.263,-0.174 0.421,-0.174c0.352,-0 0.795,-0 1.146,-0c0.158,-0 0.309,0.063 0.421,0.174c0.112,0.112 0.174,0.263 0.174,0.421c0,1.275 0,4.156 0,4.156l4.078,-0Z" style="fill:#fff;"/></g></g></svg>