<?xml version="1.0" encoding="UTF-8" standalone="no"?><!DOCTYPE svg PUBLIC "-//W3C//DTD SVG 1.1//EN" "http://www.w3.org/Graphics/SVG/1.1/DTD/svg11.dtd"><svg width="100%" height="100%" viewBox="0 0 27 27" version="1.1" xmlns="http://www.w3.org/2000/svg" xmlns:xlink="http://www.w3.org/1999/xlink" xml:space="preserve" xmlns:serif="http://www.serif.com/" style="fill-rule:evenodd;clip-rule:evenodd;stroke-linecap:round;stroke-linejoin:round;stroke-miterlimit:1.5;"><rect id="Mesa-de-trabajo1" serif:id="Mesa de trabajo1" x="-164" y="-1426" width="1080" height="1920" style="fill:none;"/><g id="Mesa-de-trabajo11" serif:id="Mesa de trabajo1"><g><path d="M4.39,14.618l-0,-0.15c-0,-1.638 0.65,-3.208 1.808,-4.366c1.158,-1.158 2.729,-1.809 4.366,-1.809c1.379,0 2.841,0 4.219,0c1.638,0 3.208,0.651 4.366,1.809c1.158,1.158 1.809,2.728 1.809,4.366c-0,0.097 -0,0.15 -0,0.15" style="fill:none;stroke:#fff;stroke-width:2.14px;"/><path d="M6.422,9.921l0,-0.001c0,-1.016 -0.403,-1.989 -1.121,-2.707c-0.718,-0.718 -1.692,-1.121 -2.707,-1.121c-0.858,-0 -1.519,-0 -1.519,-0" style="fill:none;stroke:#fff;stroke-width:1.6px;"/><ellipse cx="22.234" cy="4.289" rx="3.178" ry="3.127" style="fill:none;stroke:#fff;stroke-width:1.48px;"/><path d="M17.248,19.948c0.158,0 0.309,0.063 0.421,0.175c0.112,0.111 0.174,0.263 0.174,0.42c0,0.291 0,0.641 0,0.932c0,0.157 -0.062,0.309 -0.174,0.42c-0.112,0.112 -0.263,0.175 -0.421,0.175c-1.205,-0 -3.822,-0 -3.822,-0l0,3.647c0,0.158 -0.063,0.31 -0.174,0.421c-0.112,0.112 -0.263,0.174 -0.421,0.174c-0.316,0 -0.703,0 -1.018,0c-0.158,0 -0.31,-0.062 -0.421,-0.174c-0.112,-0.111 -0.175,-0.263 -0.175,-0.421c0,-1.168 0,-3.647 0,-3.647l-3.822,-0c-0.157,-0 -0.309,-0.063 -0.42,-0.175c-0.112,-0.111 -0.175,-0.263 -0.175,-0.42c0,-0.291 0,-0.641 0,-0.932c0,-0.157 0.063,-0.309 0.175,-0.42c0.111,-0.112 0.263,-0.175 0.42,-0.175c1.206,0 3.822,0 3.822,0l0,-3.647c0,-0.158 0.063,-0.31 0.175,-0.421c0.111,-0.112 0.263,-0.175 0.421,-0.175c0.315,0 0.702,0 1.018,0c0.158,0 0.309,0.063 0.421,0.175c0.111,0.111 0.174,0.263 0.174,0.421c0,1.167 0,3.647 0,3.647l3.822,0Z" style="fill:#fff;"/></g></g></svg>