<?xml version="1.0" encoding="UTF-8" standalone="no"?><!DOCTYPE svg PUBLIC "-//W3C//DTD SVG 1.1//EN" "http://www.w3.org/Graphics/SVG/1.1/DTD/svg11.dtd"><svg width="100%" height="100%" viewBox="0 0 28 28" version="1.1" xmlns="http://www.w3.org/2000/svg" xmlns:xlink="http://www.w3.org/1999/xlink" xml:space="preserve" xmlns:serif="http://www.serif.com/" style="fill-rule:evenodd;clip-rule:evenodd;stroke-linejoin:round;stroke-miterlimit:2;"><rect id="Mesa-de-trabajo1" serif:id="Mesa de trabajo1" x="-163" y="-1426" width="1080" height="1920" style="fill:none;"/><g id="Mesa-de-trabajo11" serif:id="Mesa de trabajo1"><g><g><path d="M5.278,20.756c-0.178,-0.441 -0.443,-0.846 -0.786,-1.188c-0.669,-0.669 -1.576,-1.045 -2.522,-1.045l-0.978,-0c-0.521,-0 -0.945,-0.423 -0.945,-0.945c0,-0.521 0.424,-0.944 0.945,-0.944l0.978,-0c1.447,-0 2.835,0.575 3.858,1.598c0.387,0.387 0.71,0.827 0.962,1.302c1.357,-0.861 2.941,-1.329 4.574,-1.329l4.973,0c2.264,0 4.436,0.9 6.037,2.501c1.601,1.601 2.5,3.772 2.5,6.036c0,0.695 -0.564,1.26 -1.259,1.26c-0.695,-0 -1.26,-0.565 -1.26,-1.26c0,-1.596 -0.634,-3.127 -1.762,-4.255c-1.129,-1.129 -2.66,-1.763 -4.256,-1.763l-4.973,0c-1.596,0 -3.127,0.634 -4.256,1.763c-1.128,1.128 -1.762,2.659 -1.762,4.255c-0,0.695 -0.565,1.26 -1.26,1.26c-0.695,-0 -1.259,-0.565 -1.259,-1.26c-0,-2.241 0.881,-4.39 2.451,-5.986Zm17.603,-11.9c2.851,-0 5.158,2.285 5.158,5.091c0,2.805 -2.307,5.09 -5.158,5.09c-2.851,0 -5.158,-2.285 -5.158,-5.09c-0,-2.806 2.307,-5.091 5.158,-5.091Zm-0,1.944c-1.77,0 -3.214,1.406 -3.214,3.147c0,1.74 1.444,3.146 3.214,3.146c1.769,-0 3.214,-1.406 3.214,-3.146c-0,-1.741 -1.445,-3.147 -3.214,-3.147Z" style="fill:#fff;"/><path d="M10.448,4.243c0.158,-0 0.309,0.063 0.421,0.174c0.111,0.112 0.174,0.263 0.174,0.421c0,0.291 0,0.64 0,0.931c0,0.158 -0.063,0.309 -0.174,0.421c-0.112,0.112 -0.263,0.174 -0.421,0.174c-1.206,0 -3.822,0 -3.822,0l-0,3.648c-0,0.158 -0.063,0.309 -0.174,0.421c-0.112,0.111 -0.263,0.174 -0.421,0.174c-0.316,0 -0.703,0 -1.019,0c-0.157,0 -0.309,-0.063 -0.42,-0.174c-0.112,-0.112 -0.175,-0.263 -0.175,-0.421c0,-1.168 0,-3.648 0,-3.648l-3.822,0c-0.158,0 -0.309,-0.062 -0.421,-0.174c-0.111,-0.112 -0.174,-0.263 -0.174,-0.421c0,-0.291 0,-0.64 0,-0.931c-0,-0.158 0.063,-0.309 0.174,-0.421c0.112,-0.111 0.263,-0.174 0.421,-0.174c1.206,-0 3.822,-0 3.822,-0l0,-3.648c0,-0.158 0.063,-0.309 0.175,-0.421c0.111,-0.111 0.263,-0.174 0.42,-0.174c0.316,0 0.703,0 1.019,0c0.158,-0 0.309,0.063 0.421,0.174c0.111,0.112 0.174,0.263 0.174,0.421c-0,1.168 -0,3.648 -0,3.648l3.822,-0Z" style="fill:#fff;"/></g></g></g></svg>