<?xml version="1.0" encoding="UTF-8" standalone="no"?><!DOCTYPE svg PUBLIC "-//W3C//DTD SVG 1.1//EN" "http://www.w3.org/Graphics/SVG/1.1/DTD/svg11.dtd"><svg width="100%" height="100%" viewBox="0 0 27 27" version="1.1" xmlns="http://www.w3.org/2000/svg" xmlns:xlink="http://www.w3.org/1999/xlink" xml:space="preserve" xmlns:serif="http://www.serif.com/" style="fill-rule:evenodd;clip-rule:evenodd;stroke-linecap:round;stroke-linejoin:round;stroke-miterlimit:1.5;"><rect id="Mesa-de-trabajo1" serif:id="Mesa de trabajo1" x="-195" y="-1426" width="1080" height="1920" style="fill:none;"/><g id="Mesa-de-trabajo11" serif:id="Mesa de trabajo1"><g><path d="M6.478,16.364l0,-0.001c0,-1.389 0.552,-2.721 1.534,-3.703c0.982,-0.982 2.314,-1.533 3.702,-1.533c1.153,-0 2.375,-0 3.528,-0c1.389,-0 2.721,0.551 3.703,1.533c0.982,0.982 1.533,2.314 1.533,3.703c0,0.001 0,0.001 0,0.001" style="fill:none;stroke:#fff;stroke-width:1.88px;"/><ellipse cx="13.478" cy="4.934" rx="3.703" ry="3.577" style="fill:none;stroke:#fff;stroke-width:1.5px;"/><path d="M18.216,20.145c0.158,-0 0.309,0.062 0.421,0.174c0.111,0.112 0.174,0.263 0.174,0.421c0,0.273 0,0.597 0,0.87c0,0.158 -0.063,0.309 -0.174,0.421c-0.112,0.112 -0.263,0.174 -0.421,0.174c-1.173,0 -3.671,0 -3.671,0l-0,3.526c-0,0.158 -0.063,0.31 -0.174,0.421c-0.112,0.112 -0.263,0.175 -0.421,0.175c-0.295,-0 -0.649,-0 -0.943,-0c-0.158,-0 -0.309,-0.063 -0.421,-0.175c-0.112,-0.111 -0.174,-0.263 -0.174,-0.421c-0,-1.141 -0,-3.526 -0,-3.526l-3.671,0c-0.158,0 -0.31,-0.062 -0.421,-0.174c-0.112,-0.112 -0.175,-0.263 -0.175,-0.421c0,-0.273 0,-0.597 0,-0.87c0,-0.158 0.063,-0.309 0.175,-0.421c0.111,-0.112 0.263,-0.174 0.421,-0.174c1.173,-0 3.671,-0 3.671,-0l-0,-3.526c-0,-0.158 0.062,-0.31 0.174,-0.421c0.112,-0.112 0.263,-0.175 0.421,-0.175c0.294,0 0.648,0 0.943,0c0.158,0 0.309,0.063 0.421,0.175c0.111,0.111 0.174,0.263 0.174,0.421c-0,1.141 -0,3.526 -0,3.526l3.671,-0Z" style="fill:#fff;"/></g><g><g><path d="M35.116,9.081l0,12.451c0,0.312 0.171,0.6 0.446,0.749c0.275,0.148 0.61,0.134 0.872,-0.037c1.404,-0.964 3.501,-2.38 4.038,-2.624c0.309,-0.141 0.435,-0.277 0.788,-1.075c0.284,-0.642 0.572,-1.261 0.634,-2.008c0.029,-0.343 -0.008,-0.784 -0.299,-1.641c-0.292,-0.858 -0.304,-2.175 -0.304,-2.175l-0.817,0.827l-0.546,-0.532c-0,-0 -0.012,-0.353 0.393,-0.766c0.406,-0.413 0.998,-0.839 0.998,-0.839c-0,0 0.244,-0.21 0.704,0.086c0.46,0.296 1.035,0.5 1.035,0.5l2.696,0.025l1.82,-0.746c-0,0 0.565,-0.398 1.184,0.016c0.618,0.414 0.957,0.873 0.957,0.873l-0.578,-0.048l-0.829,-0.294c-0.387,0.056 -0.482,0.271 -0.5,0.527l0.738,2.398l0.943,0.033l0.192,0.172c0.16,0.143 0.24,0.351 0.218,0.56c-0.032,0.251 -0.086,0.618 -0.178,1.012c-0.205,0.877 -0.389,1.512 -0.614,1.888c-0.098,0.162 -0.449,-0.006 -0.914,0.037c-0.402,0.036 -1.595,0.222 -1.879,0.742c-0.612,1.123 -0.413,4.032 -0.357,4.796c0.005,0.073 1.343,2.289 1.343,2.289l6.804,-0c0.849,-0 1.538,-0.689 1.538,-1.538c-0,-4.218 -0,-15.658 -0,-15.658l-9.738,-6.682l-10.788,6.682Z" style="fill:#fff;"/><path d="M49.567,17.15c0.037,0.002 0.076,0.003 0.114,0.003c0.912,-0 1.73,-0.563 2.055,-1.416c0.263,-0.688 0.16,-1.449 -0.247,-2.037l0.105,0.118l0.315,0.593l0.168,0.654l0.009,0.685c-0.002,0.014 -0.003,0.027 -0.005,0.04c-0.039,0.307 -0.105,0.754 -0.218,1.236c-0.275,1.177 -0.567,2.014 -0.87,2.519l-0.672,0.717l-0.734,0.338l-0.723,0.084c-0.111,-0.002 -0.275,-0.061 -0.472,-0.043c-0.046,0.004 -0.147,0.024 -0.255,0.048c-0.018,0.181 -0.021,0.384 -0.033,0.589c-0.045,0.747 -0.016,1.531 0.014,2.063l0.436,0.736l4.888,-0l-0,-13.837l-7.6,-5.215l-8.526,5.281l0,8.695c0.727,-0.479 1.406,-0.912 1.852,-1.172c0.026,-0.056 0.054,-0.116 0.08,-0.174c0.186,-0.42 0.413,-0.813 0.454,-1.301c0.013,-0.159 -0.055,-0.353 -0.19,-0.751c-0.01,-0.03 -0.02,-0.06 -0.03,-0.091c-0.195,-0.098 -0.378,-0.228 -0.543,-0.388l-0.546,-0.532c0.278,0.271 0.619,0.46 0.988,0.555c-0.045,-0.188 -0.083,-0.382 -0.116,-0.576l-1.537,-1.496l0.001,-0.133l0.102,-0.672l0.215,-0.57l0.705,-0.991c0.437,-0.445 1.041,-0.904 1.214,-1.033c-0.022,0.018 -0.044,0.036 -0.066,0.055l0.145,-0.113l0.694,-0.349l0.675,-0.126l0.943,0.109l0.858,0.395c0.091,0.059 0.191,0.111 0.283,0.154l1.833,0.017c0,-0 1.276,-0.523 1.302,-0.532c-0.078,0.036 -0.161,0.082 -0.249,0.14l0.889,-0.398l1.103,-0.117l0.808,0.159l0.799,0.394c0.979,0.656 1.502,1.394 1.502,1.394c0.513,0.694 0.573,1.623 0.153,2.377c-0.069,0.124 -0.148,0.239 -0.237,0.345c-0.076,-0.095 -0.161,-0.185 -0.254,-0.268l0.245,0.277c-0.01,0.012 -0.02,0.024 -0.03,0.036c0.215,0.347 0.336,0.757 0.328,1.195c-0.02,1.111 -0.86,2.018 -1.937,2.146l-0.071,0.187l-0.105,-0.04c0.048,-0.182 0.096,-0.378 0.145,-0.588c0.092,-0.394 0.146,-0.761 0.178,-1.012c0.022,-0.209 -0.058,-0.417 -0.218,-0.56l-0.192,-0.172l-0.943,-0.033l-0.738,-2.398c0.018,-0.256 0.113,-0.471 0.5,-0.527l0.829,0.294l0.578,0.048c-0,-0 -0.339,-0.459 -0.957,-0.873c-0.619,-0.414 -1.184,-0.016 -1.184,-0.016l-1.82,0.746l-2.696,-0.025c0,-0 -0.575,-0.204 -1.035,-0.5c-0.46,-0.296 -0.704,-0.086 -0.704,-0.086c-0,0 -0.592,0.426 -0.998,0.839c-0.405,0.413 -0.393,0.766 -0.393,0.766l0.546,0.532l0.817,-0.827c0,-0 0.012,1.317 0.304,2.175c0.291,0.857 0.328,1.298 0.299,1.641c-0.062,0.747 -0.35,1.366 -0.634,2.008c-0.353,0.798 -0.479,0.934 -0.788,1.075c-0.537,0.244 -2.634,1.66 -4.038,2.624c-0.262,0.171 -0.597,0.185 -0.872,0.037c-0.275,-0.149 -0.446,-0.437 -0.446,-0.749l0,-12.451l10.788,-6.682l9.738,6.682l-0,15.658c-0,0.849 -0.689,1.538 -1.538,1.538l-6.804,-0c-0,-0 -1.338,-2.216 -1.343,-2.289c-0.056,-0.764 -0.255,-3.673 0.357,-4.796c0.284,-0.52 1.477,-0.706 1.879,-0.742c0.465,-0.043 0.816,0.125 0.914,-0.037c0.167,-0.28 0.312,-0.703 0.46,-1.263Zm1.922,-3.45l-0.098,-0.111c0.003,-0.003 0.006,-0.006 0.009,-0.009c0.031,0.039 0.061,0.079 0.089,0.12Zm-2.755,-0.555c0.068,-0.039 0.107,-0.07 0.107,-0.07c-0.035,0.024 -0.071,0.048 -0.107,0.07Z" style="fill:#fff;"/></g></g></g></svg>