<?xml version="1.0" encoding="UTF-8" standalone="no"?><!DOCTYPE svg PUBLIC "-//W3C//DTD SVG 1.1//EN" "http://www.w3.org/Graphics/SVG/1.1/DTD/svg11.dtd"><svg width="100%" height="100%" viewBox="0 0 28 28" version="1.1" xmlns="http://www.w3.org/2000/svg" xmlns:xlink="http://www.w3.org/1999/xlink" xml:space="preserve" xmlns:serif="http://www.serif.com/" style="fill-rule:evenodd;clip-rule:evenodd;stroke-linejoin:round;stroke-miterlimit:2;"><rect id="Mesa-de-trabajo1" serif:id="Mesa de trabajo1" x="-194" y="-1425" width="1080" height="1920" style="fill:none;"/><g id="Mesa-de-trabajo11" serif:id="Mesa de trabajo1"><g><g><g><path d="M-0.004,25.771c-0.006,-0.055 -0.01,-0.111 -0.01,-0.168c0,-3.904 3.165,-7.069 7.069,-7.069l9.476,0c3.886,0 7.04,3.136 7.069,7.016l0.002,0.009c0.011,0.191 -0.002,1.076 -0.002,1.076c-0.013,0.762 -0.643,1.371 -1.405,1.357c-0.763,-0.013 -1.371,-0.642 -1.358,-1.405l0.006,-0.854c-0.004,-0.043 -0.006,-0.086 -0.006,-0.13c-0,-2.377 -1.928,-4.305 -4.306,-4.305l-9.476,-0c-2.351,-0 -4.262,1.884 -4.305,4.225l0.001,0.004c0.017,0.204 -0.002,1.119 -0.002,1.119c-0.019,0.763 -0.654,1.366 -1.416,1.346c-0.763,-0.019 -1.366,-0.654 -1.346,-1.416l0.009,-0.805Z" style="fill:#fff;"/><path d="M27.357,3.95c0.313,-0 0.567,0.254 0.567,0.567c0,0.264 0,0.577 0,0.841c0,0.313 -0.254,0.567 -0.567,0.567c-1.128,-0 -3.545,-0 -3.545,-0l0,3.383c0,0.15 -0.06,0.294 -0.166,0.401c-0.106,0.106 -0.251,0.166 -0.401,0.166c-0.287,-0 -0.635,-0 -0.922,-0c-0.15,-0 -0.295,-0.06 -0.401,-0.166c-0.106,-0.107 -0.166,-0.251 -0.166,-0.401c-0,-1.093 -0,-3.383 -0,-3.383l-3.545,-0c-0.313,-0 -0.567,-0.254 -0.567,-0.567c-0,-0.264 -0,-0.577 -0,-0.841c-0,-0.313 0.254,-0.567 0.567,-0.567c1.128,-0 3.545,-0 3.545,-0l-0,-3.383c-0,-0.15 0.06,-0.295 0.166,-0.401c0.106,-0.106 0.251,-0.166 0.401,-0.166c0.287,0 0.635,0 0.922,0c0.15,-0 0.295,0.06 0.401,0.166c0.106,0.106 0.166,0.251 0.166,0.401c0,1.093 0,3.383 0,3.383l3.545,-0Z" style="fill:#fff;"/><path d="M11.796,4.249c3.671,-0 6.633,2.898 6.633,6.444c-0,3.547 -2.962,6.445 -6.633,6.445c-3.671,0 -6.632,-2.898 -6.632,-6.445c0,-3.546 2.961,-6.444 6.632,-6.444Zm0,2.234c-2.417,-0 -4.398,1.876 -4.398,4.21c0,2.335 1.981,4.211 4.398,4.211c2.417,0 4.399,-1.876 4.399,-4.211c-0,-2.334 -1.982,-4.21 -4.399,-4.21Z" style="fill:#fff;"/></g></g></g><g><path d="M35.664,14.498c-0.693,0.128 -1.433,-0.114 -1.912,-0.697c-0.701,-0.852 -0.578,-2.114 0.275,-2.815l11.029,-9.064c0.744,-0.612 1.819,-0.606 2.557,0.013l10.79,9.065c0.845,0.71 0.955,1.973 0.245,2.818c-0.441,0.525 -1.096,0.766 -1.731,0.703l-0,11.224c-0,0.849 -0.689,1.538 -1.538,1.538l-7.78,-0c0,-0 -0.705,-1.708 -0.71,-1.784c-0.058,-0.79 -0.264,-3.795 0.37,-4.955c0.294,-0.539 1.529,-0.73 1.946,-0.768c0.481,-0.044 0.845,0.129 0.945,-0.038c0.233,-0.388 0.424,-1.045 0.636,-1.951c0.095,-0.407 0.151,-0.786 0.184,-1.045c0.024,-0.217 -0.06,-0.432 -0.225,-0.579l-0.199,-0.178l-0.976,-0.034l-0.764,-2.478c0.019,-0.265 0.117,-0.487 0.518,-0.544l0.858,0.304l0.598,0.049c0,-0 -0.351,-0.474 -0.991,-0.902c-0.64,-0.428 -1.226,-0.017 -1.226,-0.017l-1.884,0.771l-2.791,-0.026c-0,0 -0.596,-0.211 -1.072,-0.517c-0.476,-0.305 -0.729,-0.088 -0.729,-0.088c-0,-0 -0.613,0.44 -1.033,0.866c-0.42,0.427 -0.408,0.792 -0.408,0.792l0.566,0.55l0.846,-0.855c0,-0 0.013,1.361 0.314,2.247c0.302,0.887 0.34,1.343 0.31,1.697c-0.064,0.771 -0.362,1.411 -0.657,2.075c-0.365,0.824 -0.495,0.964 -0.815,1.11c-0.562,0.256 -2.774,1.747 -4.228,2.744c-0.262,0.171 -0.596,0.185 -0.871,0.036c-0.275,-0.148 -0.447,-0.436 -0.447,-0.749l0,-8.518Z" style="fill:#fff;"/></g></g></svg>