<?xml version="1.0" encoding="UTF-8" standalone="no"?><!DOCTYPE svg PUBLIC "-//W3C//DTD SVG 1.1//EN" "http://www.w3.org/Graphics/SVG/1.1/DTD/svg11.dtd"><svg width="100%" height="100%" viewBox="0 0 27 27" version="1.1" xmlns="http://www.w3.org/2000/svg" xmlns:xlink="http://www.w3.org/1999/xlink" xml:space="preserve" xmlns:serif="http://www.serif.com/" style="fill-rule:evenodd;clip-rule:evenodd;stroke-linecap:round;stroke-linejoin:round;stroke-miterlimit:1.5;"><rect id="Mesa-de-trabajo1" serif:id="Mesa de trabajo1" x="-195" y="-1426" width="1080" height="1920" style="fill:none;"/><g id="Mesa-de-trabajo11" serif:id="Mesa de trabajo1"><g><path d="M6.478,16.299l0,-0c0,-2.91 2.359,-5.268 5.268,-5.268c1.185,-0 2.443,-0 3.628,-0c2.909,-0 5.268,2.358 5.268,5.268c-0,-0 -0,-0 -0,-0" style="fill:none;stroke:#fff;stroke-width:1.9px;"/><ellipse cx="13.56" cy="4.801" rx="3.746" ry="3.598" style="fill:none;stroke:#fff;stroke-width:1.51px;"/><path d="M18.36,20.102c0.329,-0 0.595,0.266 0.595,0.595c0,0.277 0,0.606 0,0.883c0,0.328 -0.266,0.595 -0.595,0.595c-1.184,-0 -3.721,-0 -3.721,-0l-0,3.55c-0,0.158 -0.063,0.31 -0.174,0.421c-0.112,0.112 -0.263,0.174 -0.421,0.174c-0.302,0 -0.667,0 -0.968,0c-0.158,0 -0.309,-0.062 -0.421,-0.174c-0.111,-0.111 -0.174,-0.263 -0.174,-0.421c-0,-1.146 -0,-3.55 -0,-3.55l-3.721,-0c-0.329,-0 -0.595,-0.267 -0.595,-0.595c-0,-0.277 -0,-0.606 -0,-0.883c-0,-0.329 0.266,-0.595 0.595,-0.595c1.184,-0 3.721,-0 3.721,-0l-0,-3.551c-0,-0.157 0.063,-0.309 0.174,-0.42c0.112,-0.112 0.263,-0.175 0.421,-0.175c0.301,0 0.666,0 0.968,0c0.158,0 0.309,0.063 0.421,0.175c0.111,0.111 0.174,0.263 0.174,0.42c-0,1.147 -0,3.551 -0,3.551l3.721,-0Z" style="fill:#fff;"/></g><g><g><path d="M34.664,9.095l0,12.921c0,0.313 0.172,0.601 0.447,0.749c0.275,0.149 0.609,0.135 0.871,-0.036c1.454,-0.997 3.666,-2.488 4.228,-2.744c0.32,-0.146 0.45,-0.286 0.815,-1.11c0.295,-0.664 0.593,-1.304 0.657,-2.075c0.03,-0.354 -0.008,-0.81 -0.31,-1.697c-0.301,-0.886 -0.314,-2.247 -0.314,-2.247l-0.846,0.855l-0.566,-0.55c0,0 -0.012,-0.365 0.408,-0.792c0.42,-0.426 1.033,-0.866 1.033,-0.866c-0,-0 0.253,-0.217 0.729,0.088c0.476,0.306 1.072,0.517 1.072,0.517l2.791,0.026l1.884,-0.771c0,0 0.586,-0.411 1.226,0.017c0.64,0.428 0.991,0.902 0.991,0.902l-0.598,-0.049l-0.858,-0.304c-0.401,0.057 -0.499,0.279 -0.518,0.544l0.764,2.478l0.976,0.034l0.199,0.178c0.165,0.147 0.249,0.362 0.225,0.579c-0.033,0.259 -0.089,0.638 -0.184,1.045c-0.212,0.906 -0.403,1.563 -0.636,1.951c-0.1,0.167 -0.464,-0.006 -0.945,0.038c-0.417,0.038 -1.652,0.229 -1.946,0.768c-0.634,1.16 -0.428,4.165 -0.37,4.955c0.005,0.076 0.71,1.784 0.71,1.784l7.78,-0c0.849,-0 1.538,-0.689 1.538,-1.538c-0,-4.217 -0,-15.65 -0,-15.65l-10.083,-6.904l-11.17,6.904Z" style="fill:#fff;"/><path d="M49.645,17.36c0.033,0.002 0.066,0.003 0.1,0.003c0.912,-0 1.73,-0.564 2.055,-1.417c0.263,-0.689 0.16,-1.45 -0.248,-2.038l0.108,0.122l0.318,0.598l0.171,0.659l0.008,0.692c-0.001,0.014 -0.003,0.027 -0.004,0.04c-0.04,0.316 -0.109,0.775 -0.225,1.27c-0.283,1.207 -0.582,2.065 -0.892,2.582l-0.674,0.718l-0.735,0.339l-0.727,0.084c-0.116,-0.002 -0.29,-0.064 -0.497,-0.045c-0.058,0.005 -0.192,0.033 -0.328,0.064c-0.023,0.202 -0.027,0.431 -0.041,0.663c-0.053,0.87 -0.008,1.787 0.027,2.33l0.023,0.059l5.633,-0l-0,-13.828l-7.945,-5.44l-8.908,5.507l0,9.164c0.81,-0.533 1.574,-1.021 2.057,-1.301c0.03,-0.064 0.064,-0.135 0.093,-0.202c0.196,-0.441 0.433,-0.854 0.476,-1.367c0.014,-0.17 -0.055,-0.378 -0.2,-0.803c-0.014,-0.041 -0.027,-0.081 -0.04,-0.123c-0.205,-0.1 -0.399,-0.234 -0.572,-0.402l-0.565,-0.549c0.289,0.281 0.647,0.474 1.033,0.565c-0.041,-0.175 -0.076,-0.354 -0.106,-0.533l-1.593,-1.55l0,-0.134l0.104,-0.679l0.217,-0.576l0.717,-1.005c0.451,-0.458 1.073,-0.93 1.25,-1.06c-0.022,0.017 -0.044,0.035 -0.067,0.054l0.145,-0.113l0.697,-0.349l0.679,-0.127l0.949,0.11l0.867,0.398c0.103,0.067 0.217,0.125 0.319,0.172l1.932,0.018c-0,0 1.341,-0.548 1.366,-0.558c-0.077,0.036 -0.16,0.083 -0.248,0.14l0.898,-0.402l1.115,-0.118l0.816,0.161l0.809,0.398c1,0.669 1.536,1.422 1.536,1.422c0.514,0.694 0.574,1.623 0.155,2.378c-0.079,0.142 -0.173,0.273 -0.278,0.392c-0.066,-0.079 -0.138,-0.153 -0.217,-0.223l0.207,0.234c-0.009,0.009 -0.017,0.019 -0.026,0.028c0.233,0.357 0.365,0.785 0.357,1.242c-0.02,1.108 -0.855,2.013 -1.928,2.145l-0.073,0.194l-0.091,-0.035c0.043,-0.169 0.087,-0.35 0.132,-0.541c0.095,-0.407 0.151,-0.786 0.184,-1.045c0.024,-0.217 -0.06,-0.432 -0.225,-0.579l-0.199,-0.178l-0.976,-0.034l-0.764,-2.478c0.019,-0.265 0.117,-0.487 0.518,-0.544l0.858,0.304l0.598,0.049c0,-0 -0.351,-0.474 -0.991,-0.902c-0.64,-0.428 -1.226,-0.017 -1.226,-0.017l-1.884,0.771l-2.791,-0.026c-0,0 -0.596,-0.211 -1.072,-0.517c-0.476,-0.305 -0.729,-0.088 -0.729,-0.088c-0,-0 -0.613,0.44 -1.033,0.866c-0.42,0.427 -0.408,0.792 -0.408,0.792l0.566,0.55l0.846,-0.855c0,-0 0.013,1.361 0.314,2.247c0.302,0.887 0.34,1.343 0.31,1.697c-0.064,0.771 -0.362,1.411 -0.657,2.075c-0.365,0.824 -0.495,0.964 -0.815,1.11c-0.562,0.256 -2.774,1.747 -4.228,2.744c-0.262,0.171 -0.596,0.185 -0.871,0.036c-0.275,-0.148 -0.447,-0.436 -0.447,-0.749l0,-12.921l11.17,-6.904l10.083,6.904l-0,15.65c-0,0.849 -0.689,1.538 -1.538,1.538l-7.78,-0c0,-0 -0.705,-1.708 -0.71,-1.784c-0.058,-0.79 -0.264,-3.795 0.37,-4.955c0.294,-0.539 1.529,-0.73 1.946,-0.768c0.481,-0.044 0.845,0.129 0.945,-0.038c0.181,-0.301 0.336,-0.763 0.495,-1.378Zm1.907,-3.452l-0.137,-0.154c0.003,-0.004 0.007,-0.008 0.01,-0.011c0.045,0.053 0.087,0.108 0.127,0.165Zm-2.831,-0.674c0.068,-0.039 0.107,-0.071 0.107,-0.071c-0.035,0.025 -0.071,0.049 -0.107,0.071Z" style="fill:#fff;"/></g></g></g></svg>