<?xml version="1.0" encoding="UTF-8" standalone="no"?><!DOCTYPE svg PUBLIC "-//W3C//DTD SVG 1.1//EN" "http://www.w3.org/Graphics/SVG/1.1/DTD/svg11.dtd"><svg width="100%" height="100%" viewBox="0 0 28 28" version="1.1" xmlns="http://www.w3.org/2000/svg" xmlns:xlink="http://www.w3.org/1999/xlink" xml:space="preserve" xmlns:serif="http://www.serif.com/" style="fill-rule:evenodd;clip-rule:evenodd;stroke-linejoin:round;stroke-miterlimit:2;"><rect id="Mesa-de-trabajo1" serif:id="Mesa de trabajo1" x="-321" y="-1425" width="1080" height="1920" style="fill:none;"/><g id="Mesa-de-trabajo11" serif:id="Mesa de trabajo1"><g><path d="M1.394,10.911c-1.032,-1.154 -1.394,-2.638 -1.394,-4.256c-0,-3.673 2.942,-6.655 6.885,-6.655c2.904,0 6.115,2.982 6.115,6.655c0,3.451 -2.041,6.357 -5.409,6.345c0.004,-0.016 0.005,-0.031 0.004,-0.045c-0.046,-0.675 -0.176,-2.11 0.337,-3.101c0.238,-0.459 1.237,-0.623 1.574,-0.655c0.39,-0.037 0.684,0.11 0.765,-0.032c0.189,-0.332 0.343,-0.893 0.515,-1.667c0.078,-0.354 0.124,-0.683 0.15,-0.905c0.018,-0.178 -0.047,-0.353 -0.176,-0.474l-0.168,-0.159l-0.79,-0.03l-0.618,-2.116c0.015,-0.226 0.095,-0.416 0.419,-0.465l0.694,0.26l0.484,0.042c-0,-0 -0.284,-0.405 -0.802,-0.77c-0.518,-0.366 -0.991,-0.015 -0.991,-0.015l-1.525,0.659l-2.258,-0.022c0,-0 -0.481,-0.181 -0.867,-0.442c-0.385,-0.261 -0.59,-0.075 -0.59,-0.075c0,-0 -0.496,0.375 -0.835,0.74c-0.34,0.364 -0.33,0.676 -0.33,0.676l0.457,0.469l0.685,-0.73c0,0 0.01,1.163 0.254,1.92c0.245,0.756 0.275,1.146 0.251,1.448c-0.052,0.659 -0.293,1.206 -0.531,1.772c-0.296,0.704 -0.379,0.892 -0.66,0.948c-0.71,0.143 -1.648,0.665 -1.645,0.68Z" style="fill:#fff;"/><path d="M21.5,15c3.588,0 6.5,2.896 6.5,6.46c0,3.565 -2.912,6.461 -6.5,6.461c-3.588,-0 -6.5,-2.896 -6.5,-6.461c0,-3.564 2.912,-6.46 6.5,-6.46Zm0,1.994c-2.482,0 -4.5,2 -4.5,4.466c0,2.467 2.018,4.467 4.5,4.467c2.482,-0 4.5,-2 4.5,-4.467c0,-2.466 -2.018,-4.466 -4.5,-4.466Z" style="fill:#fff;"/><path d="M6.5,15c3.588,0 6.5,2.896 6.5,6.46c0,3.565 -2.912,6.461 -6.5,6.461c-3.588,-0 -6.5,-2.896 -6.5,-6.461c0,-3.564 2.912,-6.46 6.5,-6.46Zm0,1.994c-2.482,0 -4.5,2 -4.5,4.466c0,2.467 2.018,4.467 4.5,4.467c2.482,-0 4.5,-2 4.5,-4.467c0,-2.466 -2.018,-4.466 -4.5,-4.466Z" style="fill:#fff;"/><path d="M21.5,0c3.588,0 6.5,2.896 6.5,6.46c0,3.565 -2.912,6.461 -6.5,6.461c-3.588,-0 -6.5,-2.896 -6.5,-6.461c0,-3.564 2.912,-6.46 6.5,-6.46Zm0,1.994c-2.482,0 -4.5,2 -4.5,4.466c0,2.467 2.018,4.467 4.5,4.467c2.482,-0 4.5,-2 4.5,-4.467c0,-2.466 -2.018,-4.466 -4.5,-4.466Z" style="fill:#fff;"/></g><g><g><path d="M-23.02,19.952c0.133,0.695 -0.078,1.442 -0.628,1.968l-5.682,5.44c-0.864,0.826 -2.238,0.798 -3.066,-0.063c-0.829,-0.861 -0.801,-2.232 0.063,-3.058l5.682,-5.44c0.507,-0.485 1.19,-0.676 1.835,-0.577c-2.115,-2.547 -3.077,-5.998 -2.317,-9.469c1.313,-6.001 7.28,-9.808 13.318,-8.493c6.038,1.315 9.871,7.256 8.557,13.257c-1.314,6.001 -7.28,9.808 -13.318,8.493c-1.671,-0.364 -3.173,-1.082 -4.444,-2.058Zm8.742,-17.579c-4.866,-1.06 -9.678,2.004 -10.737,6.841c-1.058,4.837 2.035,9.623 6.901,10.683c4.867,1.059 9.679,-2.005 10.737,-6.842c1.059,-4.837 -2.034,-9.622 -6.901,-10.682Z" style="fill:#fff;"/></g></g></g></svg>