<?xml version="1.0" encoding="UTF-8" standalone="no"?><!DOCTYPE svg PUBLIC "-//W3C//DTD SVG 1.1//EN" "http://www.w3.org/Graphics/SVG/1.1/DTD/svg11.dtd"><svg width="100%" height="100%" viewBox="0 0 28 28" version="1.1" xmlns="http://www.w3.org/2000/svg" xmlns:xlink="http://www.w3.org/1999/xlink" xml:space="preserve" xmlns:serif="http://www.serif.com/" style="fill-rule:evenodd;clip-rule:evenodd;stroke-linejoin:round;stroke-miterlimit:2;"><rect id="Mesa-de-trabajo1" serif:id="Mesa de trabajo1" x="-360" y="-1425" width="1080" height="1920" style="fill:none;"/><g id="Mesa-de-trabajo11" serif:id="Mesa de trabajo1"><g><path d="M5.923,16.451c-0.153,-0.639 -0.481,-1.229 -0.955,-1.701c-0.674,-0.671 -1.588,-1.047 -2.541,-1.047l-1.554,-0c-0.482,-0 -0.873,-0.39 -0.873,-0.869c0,-0.479 0.391,-0.869 0.873,-0.869l1.554,0c1.416,0 2.774,0.56 3.775,1.557c0.527,0.524 0.933,1.147 1.198,1.826c1.141,-0.657 2.465,-1.033 3.878,-1.033l5.307,-0c2.056,-0 4.028,0.813 5.482,2.26c1.454,1.447 2.271,3.41 2.271,5.457l0,0.694c-0.192,0.67 -0.535,1.062 -1.081,1.084c-0.596,-0 -1.08,-0.482 -1.08,-1.076c-0,-0.002 -0,-0.005 -0,-0.008l-0,-0.694c-0,-1.476 -0.59,-2.892 -1.638,-3.935c-1.049,-1.044 -2.471,-1.631 -3.954,-1.631l-5.307,0c-3.089,0 -5.592,2.492 -5.592,5.566l-0,0.694c-0.056,0.628 -0.389,1.013 -1.081,1.084c-0.596,-0 -1.081,-0.482 -1.081,-1.076c0,-0.002 0,-0.005 0,-0.008l0,-0.694c0,-2.195 0.921,-4.176 2.399,-5.581Zm17.337,-10.798c2.611,0 4.74,2.144 4.74,4.794c0,2.65 -2.129,4.793 -4.74,4.793c-2.612,0 -4.741,-2.143 -4.741,-4.793c0,-2.65 2.129,-4.794 4.741,-4.794Zm-0,1.737c-1.658,0 -2.996,1.375 -2.996,3.057c0,1.682 1.338,3.056 2.996,3.056c1.657,0 2.995,-1.374 2.995,-3.056c-0,-1.682 -1.338,-3.057 -2.995,-3.057Z" style="fill:#fff;"/></g></g></svg>