<?xml version="1.0" encoding="UTF-8" standalone="no"?><!DOCTYPE svg PUBLIC "-//W3C//DTD SVG 1.1//EN" "http://www.w3.org/Graphics/SVG/1.1/DTD/svg11.dtd"><svg width="100%" height="100%" viewBox="0 0 27 27" version="1.1" xmlns="http://www.w3.org/2000/svg" xmlns:xlink="http://www.w3.org/1999/xlink" xml:space="preserve" xmlns:serif="http://www.serif.com/" style="fill-rule:evenodd;clip-rule:evenodd;stroke-linecap:round;stroke-linejoin:round;stroke-miterlimit:1;"><rect id="Mesa-de-trabajo1" serif:id="Mesa de trabajo1" x="-313" y="-1426" width="1080" height="1920" style="fill:none;"/><g id="Mesa-de-trabajo11" serif:id="Mesa de trabajo1"><g><g><path d="M11.592,25.292l-0,-0.001c-0,-2.275 1.844,-4.12 4.12,-4.12c0.705,0 1.712,0 2.401,0c2.275,0 4.12,1.845 4.12,4.12c-0,0.001 -0,0.001 -0,0.001" style="fill:none;stroke:#fff;stroke-width:2px;"/><path d="M12.897,22.232l-0,-0.001c-0,-0.662 -0.263,-1.296 -0.731,-1.764c-0.467,-0.467 -1.102,-0.73 -1.763,-0.73c-0.534,-0 -0.941,-0 -0.941,-0" style="fill:none;stroke:#fff;stroke-width:1.45px;stroke-miterlimit:1.5;"/><ellipse cx="23.218" cy="18.397" rx="2.207" ry="2.202" style="fill:none;stroke:#fff;stroke-width:1.45px;stroke-miterlimit:1.5;"/></g><g><path d="M3.12,10.265l0,-0.001c0,-2.276 1.845,-4.12 4.12,-4.12c0.705,-0 1.712,-0 2.401,-0c2.276,-0 4.12,1.844 4.12,4.12c0,0 0,0.001 0,0.001" style="fill:none;stroke:#fff;stroke-width:2px;"/><path d="M4.425,7.204l0,-0.001c0,-0.661 -0.262,-1.296 -0.73,-1.763c-0.468,-0.468 -1.102,-0.731 -1.764,-0.731c-0.533,0 -0.94,0 -0.94,0" style="fill:none;stroke:#fff;stroke-width:1.45px;stroke-miterlimit:1.5;"/><ellipse cx="14.746" cy="3.37" rx="2.207" ry="2.202" style="fill:none;stroke:#fff;stroke-width:1.45px;stroke-miterlimit:1.5;"/></g></g><g><g><path d="M-10.228,1.637c5.029,1.098 8.223,6.058 7.129,11.068c-1.094,5.011 -6.065,8.188 -11.093,7.09c-5.028,-1.098 -8.222,-6.057 -7.128,-11.068c1.094,-5.011 6.064,-8.187 11.092,-7.09Z" style="fill:none;stroke:#fff;stroke-width:2px;stroke-linejoin:miter;stroke-miterlimit:1.5;"/></g></g></g></svg>