<?xml version="1.0" encoding="UTF-8" standalone="no"?><!DOCTYPE svg PUBLIC "-//W3C//DTD SVG 1.1//EN" "http://www.w3.org/Graphics/SVG/1.1/DTD/svg11.dtd"><svg width="100%" height="100%" viewBox="0 0 27 27" version="1.1" xmlns="http://www.w3.org/2000/svg" xmlns:xlink="http://www.w3.org/1999/xlink" xml:space="preserve" xmlns:serif="http://www.serif.com/" style="fill-rule:evenodd;clip-rule:evenodd;stroke-linecap:round;stroke-linejoin:round;stroke-miterlimit:1;"><rect id="Mesa-de-trabajo1" serif:id="Mesa de trabajo1" x="-313" y="-1426" width="1080" height="1920" style="fill:none;"/><g id="Mesa-de-trabajo11" serif:id="Mesa de trabajo1"><g><g><path d="M11.006,24.212l-0,-0.001c-0,-2.421 1.963,-4.384 4.384,-4.384c0.751,0 1.822,0 2.555,0c1.163,0 2.278,0.462 3.1,1.284c0.822,0.822 1.284,1.937 1.284,3.1c0,0.001 0,0.001 0,0.001" style="fill:none;stroke:#fff;stroke-width:2px;"/><path d="M12.395,20.956l-0,-0.001c-0,-0.704 -0.28,-1.379 -0.778,-1.877c-0.497,-0.498 -1.172,-0.777 -1.876,-0.777c-0.568,-0 -1.001,-0 -1.001,-0" style="fill:none;stroke:#fff;stroke-width:1.54px;stroke-miterlimit:1.5;"/><ellipse cx="23.378" cy="16.875" rx="2.348" ry="2.344" style="fill:none;stroke:#fff;stroke-width:1.54px;stroke-miterlimit:1.5;"/></g><g><path d="M2.977,12.863l-0,-0.001c-0,-2.422 1.962,-4.384 4.384,-4.384c0.75,-0 1.822,-0 2.555,-0c1.163,-0 2.278,0.462 3.1,1.284c0.822,0.822 1.284,1.937 1.284,3.1c0,0 0,0.001 0,0.001" style="fill:none;stroke:#fff;stroke-width:2px;"/><path d="M4.366,9.606l-0,-0.001c-0,-0.704 -0.28,-1.379 -0.778,-1.877c-0.497,-0.497 -1.173,-0.777 -1.876,-0.777c-0.568,0 -1.001,0 -1.001,0" style="fill:none;stroke:#fff;stroke-width:1.54px;stroke-miterlimit:1.5;"/><ellipse cx="15.348" cy="5.526" rx="2.348" ry="2.344" style="fill:none;stroke:#fff;stroke-width:1.54px;stroke-miterlimit:1.5;"/></g></g></g></svg>