<?xml version="1.0" encoding="UTF-8" standalone="no"?><!DOCTYPE svg PUBLIC "-//W3C//DTD SVG 1.1//EN" "http://www.w3.org/Graphics/SVG/1.1/DTD/svg11.dtd"><svg width="100%" height="100%" viewBox="0 0 27 27" version="1.1" xmlns="http://www.w3.org/2000/svg" xmlns:xlink="http://www.w3.org/1999/xlink" xml:space="preserve" xmlns:serif="http://www.serif.com/" style="fill-rule:evenodd;clip-rule:evenodd;stroke-linecap:round;stroke-linejoin:round;stroke-miterlimit:1;"><rect id="Mesa-de-trabajo1" serif:id="Mesa de trabajo1" x="-343" y="-1426" width="1080" height="1920" style="fill:none;"/><g id="Mesa-de-trabajo11" serif:id="Mesa de trabajo1"><g><path d="M4.493,20.532l-0,-0.653c-0,-3.41 2.764,-6.174 6.174,-6.174c1.398,0 3.537,0 4.91,0c1.638,0 3.208,0.651 4.366,1.808c1.158,1.158 1.808,2.729 1.808,4.366c0,0.404 0,0.653 0,0.653" style="fill:none;stroke:#fff;stroke-width:2px;"/><path d="M6.61,15.462l-0,-0.001c-0,-1.096 -0.436,-2.147 -1.21,-2.922c-0.775,-0.775 -1.826,-1.21 -2.922,-1.21c-0.823,-0 -1.439,-0 -1.439,-0" style="fill:none;stroke:#fff;stroke-width:1.61px;stroke-miterlimit:1.5;"/><ellipse cx="21.753" cy="9.109" rx="3.579" ry="3.649" style="fill:none;stroke:#fff;stroke-width:1.61px;stroke-miterlimit:1.5;"/></g></g></svg>